<?xml version="1.0" encoding="UTF-8"?>
<svg id="Layer_1" xmlns="http://www.w3.org/2000/svg" version="1.1" viewBox="0 0 219 192">
  <!-- Generator: Adobe Illustrator 29.5.1, SVG Export Plug-In . SVG Version: 2.1.0 Build 141)  -->
  <path d="M77.52,148.73c3.68,3.75,7.81,6.05,8.79,11.8,2.8,16.48-17.4,24.59-26.31,12.15-5.69-7.95-2.54-18.1,5.55-22.84.24-1.64-.25-.88-1.09-1.13-2.63-.78-5.29-.76-6.56-3.93-3.28-8.19,6.44-15.23,6.12-21.07L43.16,29.08c-1.79-1.18-18.85.08-22.86-.31-10.85-1.05-10.48-13.88-.73-15.05,5.13-.62,27.34-.73,31.84.34,7.19,1.71,5.81,14.21,7.91,14.71l139.67-.05c3.76.64,6.63,2.29,7.1,6.38,2.22,19.23-1.72,42.62.02,62.3l-2.63,4.86-124.73,15.7c-.71,5.45,1.65,10.4-1.98,15.78h108.75c.46,0,3.95,2.3,4.47,3.01,4.14,5.67-1.19,13.02-7.83,11.99,7.49,5.57,12.28,13.96,6.88,23.02-10.04,16.85-36.67.07-24.4-16.98,1.72-2.4,4.86-3.44,5.56-6.05h-92.68Z"/>
</svg>