<?xml version="1.0" encoding="UTF-8"?>
<svg id="Layer_1" xmlns="http://www.w3.org/2000/svg" version="1.1" viewBox="0 0 234 192">
  <!-- Generator: Adobe Illustrator 29.5.1, SVG Export Plug-In . SVG Version: 2.1.0 Build 141)  -->
  <path d="M96.23,73.68l117.24.15c3.47.7,7.32,4.21,8.04,7.71.75,3.69.75,25.21,0,28.91-.86,4.21-5.66,7.85-9.95,8.05l-115.92-.34c-3.47-.7-7.32-4.21-8.04-7.71s-.64-26.98.32-30.08,5.05-6.14,8.31-6.69ZM87.78,140.98c-.89,3.39-.88,26.53-.03,30.07.94,3.94,4.91,6.13,8.48,7.27l115.32.18c4.29-.2,9.09-3.84,9.95-8.05.75-3.69.75-25.21,0-28.91s-4.56-7.02-8.04-7.71l-117.24-.15c-3.53.59-7.53,3.77-8.45,7.3ZM87.41,22.86c-.57,4.72-.68,23.3.19,27.6,1.16,5.72,7.07,7.71,12.17,8.08,35.85,2.61,74.84-2.01,111.02-.04,4.47-.22,9.78-3.44,10.71-8.04.75-3.7.75-25.21,0-28.91-.71-3.5-4.56-7.02-8.04-7.71l-117.24-.15c-4.46.75-8.28,4.66-8.82,9.18ZM12.49,82.19c-.71,4.97-.77,22.75-.02,27.63s5.4,8.15,10.07,8.68c8.97,1.01,29.13.84,38.28.03,5.45-.48,10.17-3.61,10.86-9.39.66-5.47.66-20.81,0-26.28s-5-8.78-10.14-9.36c-7.68-.86-33.05-1.04-40.32.18-4.19.7-8.14,4.3-8.74,8.51ZM12.47,142.17c-.75,4.88-.69,22.67.02,27.63s5.25,8.16,10.05,8.7c8.98,1.01,29.13.84,38.28.03,5.45-.48,10.17-3.61,10.86-9.39.66-5.47.66-20.81,0-26.28s-5-8.78-10.14-9.36c-7.68-.86-33.06-1.04-40.32.18-4.02.68-8.12,4.39-8.76,8.49ZM12.49,22.19c-.71,4.97-.77,22.75-.02,27.63.83,5.39,5.78,8.16,10.84,8.66,9.16.91,27.52.82,36.77.03,5.64-.48,10.87-3.22,11.62-9.38.66-5.47.66-20.81,0-26.28s-5-8.78-10.14-9.36c-7.68-.86-33.05-1.04-40.32.18-4.19.7-8.14,4.3-8.74,8.51Z"/>
</svg>