<?xml version="1.0" encoding="UTF-8"?>
<svg id="Layer_1" xmlns="http://www.w3.org/2000/svg" version="1.1" viewBox="0 0 173.25 202.5">
  <!-- Generator: Adobe Illustrator 29.5.1, SVG Export Plug-In . SVG Version: 2.1.0 Build 141)  -->
  <path d="M145.99,102.54c13.31,13.29,19.57,54.36,12.9,71.25-3.58,9.06-11.91,16.67-21.99,17.01-32.63-2.24-69.08,2.9-101.27-.04-13.42-1.23-22.65-13.72-23.66-26.59-1.75-22.23,3.46-63.92,29.86-69.94,9.95-2.27,7.95.3,14.93,4.9,14.64,9.65,31.05,12.09,47.88,6.16,7.65-2.7,13.18-7.29,19.52-12.04,8.06.25,16.11,3.58,21.82,9.28ZM82.22,100.68c34.56,3.23,59.62-32.22,45.18-63.93C113.9,7.13,72.84,1.56,52.07,26.84c-22.79,27.73-5.77,70.48,30.15,73.84Z"/>
</svg>